<?xml version="1.0" encoding="UTF-8" standalone="no"?>
<!-- Created with Inkscape (http://www.inkscape.org/) -->

<svg
   width="1920"
   height="1080"
   viewBox="0 0 1920 1080"
   version="1.1"
   id="svg1"
   inkscape:version="1.4.2 (f4327f4, 2025-05-13)"
   sodipodi:docname="CHAMROLEX.svg"
   xmlns:inkscape="http://www.inkscape.org/namespaces/inkscape"
   xmlns:sodipodi="http://sodipodi.sourceforge.net/DTD/sodipodi-0.dtd"
   xmlns="http://www.w3.org/2000/svg"
   xmlns:svg="http://www.w3.org/2000/svg">
  <sodipodi:namedview
     id="namedview1"
     pagecolor="#ffffff"
     bordercolor="#000000"
     borderopacity="0.25"
     inkscape:showpageshadow="2"
     inkscape:pageopacity="0.0"
     inkscape:pagecheckerboard="0"
     inkscape:deskcolor="#d1d1d1"
     inkscape:document-units="px"
     inkscape:zoom="0.32409061"
     inkscape:cx="927.20984"
     inkscape:cy="671.10862"
     inkscape:window-width="1366"
     inkscape:window-height="697"
     inkscape:window-x="-8"
     inkscape:window-y="-8"
     inkscape:window-maximized="1"
     inkscape:current-layer="layer1" />
  <defs
     id="defs1">
    <inkscape:path-effect
       effect="perspective-envelope"
       up_left_point="890.42331,506.40739"
       up_right_point="1216.568,469.98106"
       down_left_point="890.4233,569.90194"
       down_right_point="1206.4496,606.32827"
       id="path-effect1"
       is_visible="true"
       lpeversion="1"
       deform_type="perspective"
       horizontal_mirror="false"
       vertical_mirror="false"
       overflow_perspective="false" />
    <rect
       x="914.18182"
       y="506.18182"
       width="495.27273"
       height="200.72727"
       id="rect1" />
  </defs>
  <g
     inkscape:label="Capa 1"
     inkscape:groupmode="layer"
     id="layer1">
    <path
       d="m 906.89366,534.30246 -7.19978,0.0815 0.0236,-11.01286 c 0.007,-3.21284 -0.067,-5.2082 -0.22152,-5.98209 -0.14322,-0.8003 -0.47074,-1.18122 -0.98124,-1.14326 -0.57493,0.0428 -0.93939,0.5506 -1.09492,1.52255 -0.1553,0.97048 -0.23534,3.04881 -0.2403,6.2326 l -0.0451,28.9815 c -0.005,3.00942 0.0684,4.97632 0.21923,5.90429 0.15095,0.92857 0.49371,1.41415 1.0297,1.45641 0.51601,0.0407 0.8528,-0.39407 1.00916,-1.30542 0.16765,-0.91193 0.25523,-3.07753 0.26256,-6.49981 l 0.0168,-7.85573 7.18168,0.17463 -0.01,2.50157 c -0.0252,6.63031 -0.25199,11.30513 -0.67906,14.0313 -0.4138,2.71608 -1.32336,5.03331 -2.71896,6.94485 -1.36995,1.89303 -3.03983,2.71815 -5.00004,2.49221 -2.0094,-0.23161 -3.64396,-1.26147 -4.91678,-3.08075 -1.26244,-1.80443 -2.09287,-4.18896 -2.49853,-7.16118 -0.40504,-2.99255 -0.60733,-7.45052 -0.60733,-13.38956 l 10e-6,-17.80229 c 0,-4.41358 0.0627,-7.72692 0.18837,-9.93646 0.12588,-2.23913 0.499,-4.41359 1.12169,-6.52864 0.63666,-2.12749 1.517,-3.8418 2.64556,-5.14243 1.14912,-1.33889 2.4774,-2.09645 3.98925,-2.2653 2.07833,-0.23213 3.81368,0.52904 5.1923,2.29736 1.39055,1.78362 2.30668,4.10809 2.7399,6.96539 0.43404,2.83529 0.63977,7.29491 0.61669,13.36251 z m 21.26706,-30.63655 -0.59783,69.08801 -8.16236,-0.90402 0.18907,-28.01001 -2.37852,-0.0476 -0.17232,27.79606 -7.63578,-0.8457 0.28775,-65.09954 7.76201,-0.83091 -0.14952,24.11833 2.38748,-0.0679 0.16407,-24.30753 z m 19.25282,-2.06096 4.51603,73.8477 -9.66508,-1.07045 -0.30362,-12.85454 -3.26011,-0.23491 -0.67401,12.62009 -9.00443,-0.99728 5.06121,-69.88367 z m -5.56287,47.21088 c -0.3693,-8.15171 -0.71651,-18.22842 -1.04204,-30.24887 -1.08577,13.82621 -1.77419,23.8398 -2.07398,30.14386 z m 46.79978,-51.62518 -1.84696,82.12446 -10.04192,-1.11219 1.08007,-53.62438 -4.94304,53.19653 -6.66165,-0.73781 -2.99678,-50.74737 -0.84459,50.32192 -8.79623,-0.97422 1.10193,-74.81278 13.47185,-1.44212 c 0.32628,4.71319 0.66315,10.27017 1.01048,16.66873 l 1.13004,19.95589 3.20407,-37.19674 z m 4.91567,-0.52621 8.98668,-0.96201 c 6.2293,-0.66682 10.5429,-0.70765 12.8098,-0.1015 2.3141,0.61059 4.1662,2.61403 5.5426,6.01949 1.408,3.38546 1.9973,8.95709 1.7624,16.67963 -0.2138,7.02713 -0.8869,11.74612 -2.0145,14.16265 -1.1206,2.40149 -3.2106,3.83995 -6.2405,4.32107 2.6969,1.12469 4.5065,2.64532 5.4051,4.55634 0.9019,1.9183 1.4417,3.69021 1.6168,5.31067 0.1988,1.58488 0.1888,5.97278 -0.029,13.14522 l -0.7081,23.27297 -12.6254,-1.39832 0.7819,-28.46351 c 0.1269,-4.62061 -0.016,-7.49129 -0.4276,-8.60316 -0.3901,-1.10967 -1.4952,-1.67596 -3.3031,-1.70001 l -1.0172,38.32742 -12.50352,-1.38483 z m 12.42348,13.57496 -0.5115,19.27397 c 1.4801,-0.0305 2.5278,-0.39169 3.1362,-1.08505 0.6327,-0.73207 1.0027,-3.02229 1.1085,-6.87391 l 0.1323,-4.81513 c 0.076,-2.78211 -0.1715,-4.58962 -0.7427,-5.41826 -0.5484,-0.82795 -1.592,-1.18777 -3.1228,-1.08162 z m 57.5775,37.03021 c -0.3952,9.85604 -0.837,16.80741 -1.3254,20.87761 -0.4581,4.01874 -1.5723,7.62909 -3.3319,10.81949 -1.7178,3.16513 -3.953,5.47948 -6.69,6.94921 -2.702,1.451 -5.7651,1.97076 -9.1743,1.5778 -3.1862,-0.36724 -5.9867,-1.48155 -8.4168,-3.33168 -2.3791,-1.86474 -4.2421,-4.43994 -5.6027,-7.72695 -1.3532,-3.26897 -2.106,-6.75131 -2.2641,-10.46158 -0.1582,-3.71171 -0.091,-10.19576 0.2026,-19.48095 l 0.4908,-15.52081 c 0.2898,-9.16663 0.6234,-15.67741 1.0006,-19.5118 0.4029,-3.8855 1.3594,-7.48598 2.8778,-10.81276 1.5548,-3.35654 3.6035,-6.03886 6.1603,-8.04457 2.5892,-2.03112 5.606,-3.24733 9.067,-3.63388 3.3357,-0.37256 6.3364,0.15756 8.9864,1.60701 2.709,1.4226 4.8595,3.79832 6.4347,7.12959 1.5848,3.35135 2.4637,7.08347 2.6295,11.17987 0.1657,4.0946 0.043,11.2718 -0.3673,21.4967 z m -15.445,-31.70555 c 0.1624,-4.47663 0.1,-7.32262 -0.1884,-8.53019 -0.2607,-1.24796 -0.888,-1.83459 -1.8786,-1.76091 -0.8348,0.0621 -1.4958,0.62213 -1.9844,1.67827 -0.4609,1.01247 -0.7771,3.96972 -0.949,8.86533 l -1.5419,43.91503 c -0.1895,5.39843 -0.1712,8.73229 0.055,10.01236 0.2509,1.28285 0.8942,1.96549 1.9338,2.04746 1.0694,0.0843 1.7825,-0.59295 2.1359,-2.03437 0.3541,-1.44439 0.6316,-4.93184 0.8324,-10.47079 z m 43.2029,-29.36446 -3.8411,83.71565 11.8533,0.80195 -1.0192,20.94869 -29.9436,-3.31641 4.1669,-100.13913 z m 17.2177,-1.8431 37.6132,-4.0264 -1.3819,23.69228 -15.5953,0.98199 -1.1809,21.56388 14.4613,-0.30989 -1.2791,22.01813 -14.3553,-0.28742 -1.3415,24.49708 16.8054,1.13699 -1.3362,22.76472 -37.7798,-4.18431 z m 102.3355,-10.95475 -14.5031,58.41451 10.2722,71.84763 -26.2415,-2.90637 c -2.1734,-12.40417 -3.9067,-27.36173 -5.2073,-44.91 -1.1825,7.65558 -2.6402,15.7241 -4.3679,24.1878 l -3.7424,19.2472 -24.0661,-2.66543 12.6771,-64.39539 -5.7711,-52.2954 24.8838,-2.66375 c 0.2446,3.41206 0.8095,9.07665 1.6956,17.00135 0.7122,6.04978 1.2658,11.60276 1.6603,16.65472 l 8.197,-34.89278 z"
       id="text1"
       style="font-stretch:condensed;font-size:53.3333px;font-family:Impact;-inkscape-font-specification:'Impact, Condensed';white-space:pre;opacity:0.97"
       transform="matrix(4.5741665,0,0,4.5741665,-3788.578,-1953.371)"
       aria-label="CHAMROLEX"
       inkscape:path-effect="#path-effect1"
       inkscape:original-d="m 941.96808,535.79663 h -10.96353 v -7.34374 q 0,-3.20312 -0.36459,-3.98437 -0.33854,-0.80729 -1.53645,-0.80729 -1.35417,0 -1.71875,0.96354 -0.36459,0.96354 -0.36459,4.16666 v 19.58332 q 0,3.07292 0.36459,4.01042 0.36458,0.9375 1.64062,0.9375 1.22396,0 1.58854,-0.9375 0.39063,-0.9375 0.39063,-4.40104 v -5.28646 h 10.96353 v 1.64063 q 0,6.53645 -0.9375,9.27082 -0.91145,2.73438 -4.08854,4.79167 -3.15104,2.05729 -7.78645,2.05729 -4.81771,0 -7.9427,-1.74479 -3.125,-1.74479 -4.14063,-4.81771 -1.01562,-3.09895 -1.01562,-9.29687 v -12.3177 q 0,-4.55729 0.3125,-6.82291 0.3125,-2.29167 1.84896,-4.40104 1.5625,-2.10937 4.29687,-3.30729 2.76041,-1.22396 6.32812,-1.22396 4.84375,0 7.99479,1.875 3.15104,1.875 4.14062,4.6875 0.98958,2.78646 0.98958,8.69791 z m 29.14061,-18.3854 v 42.16143 h -10.96353 v -17.70832 h -3.28125 v 17.70832 h -10.96354 v -42.16143 h 10.96354 v 15.07812 h 3.28125 v -15.07812 z m 23.33332,0 6.27599,42.16143 h -11.2239 l -0.54688,-7.57812 h -3.93229 l -0.65104,7.57812 h -11.35416 l 5.57291,-42.16143 z m -5.80729,27.10936 q -0.83333,-7.16146 -1.66666,-17.68228 -1.66667,12.08332 -2.08334,17.68228 z m 47.78648,-27.10936 v 42.16143 h -9.5834 v -28.46352 l -3.8281,28.46352 h -6.7969 l -4.0364,-27.81248 v 27.81248 h -9.5834 v -42.16143 h 14.1927 q 0.625,3.80208 1.3282,8.95833 l 1.5104,10.72916 2.5,-19.68749 z m 4.401,0 h 7.7604 q 7.7604,0 10.4948,0.59896 2.7604,0.59895 4.4791,3.07291 1.7448,2.44792 1.7448,7.83854 0,4.92187 -1.2239,6.61458 -1.224,1.69271 -4.8177,2.03125 3.2552,0.80729 4.375,2.16145 1.1198,1.35417 1.3802,2.5 0.2864,1.11979 0.2864,6.22396 v 11.11978 h -10.1822 v -14.01041 q 0,-3.38541 -0.5469,-4.1927 -0.5209,-0.80729 -2.7865,-0.80729 v 19.0104 h -10.9635 z m 10.9635,7.21354 v 9.37499 q 1.849,0 2.5781,-0.49479 0.7553,-0.52083 0.7553,-3.30729 v -2.31771 q 0,-2.0052 -0.7292,-2.6302 -0.7031,-0.625 -2.6042,-0.625 z m 42.8125,17.47394 q 0,6.35417 -0.3125,9.01042 -0.2864,2.6302 -1.875,4.8177 -1.5625,2.1875 -4.2448,3.35937 -2.6823,1.17188 -6.25,1.17188 -3.3854,0 -6.0937,-1.09375 -2.6823,-1.11979 -4.3229,-3.33333 -1.6407,-2.21354 -1.9532,-4.81771 -0.3125,-2.60416 -0.3125,-9.11458 v -7.21353 q 0,-6.35417 0.2865,-8.98437 0.3125,-2.65625 1.875,-4.84375 1.5885,-2.1875 4.2708,-3.35937 2.6823,-1.17188 6.25,-1.17188 3.3854,0 6.0677,1.11979 2.7084,1.09375 4.349,3.30729 1.6406,2.21354 1.9531,4.81771 0.3125,2.60416 0.3125,9.11458 z m -10.9635,-13.85415 q 0,-2.94271 -0.3386,-3.75 -0.3125,-0.83333 -1.3281,-0.83333 -0.8594,0 -1.3281,0.67708 -0.4427,0.65104 -0.4427,3.90625 v 19.68748 q 0,3.67188 0.2864,4.53125 0.3125,0.85938 1.4063,0.85938 1.1198,0 1.4323,-0.98959 0.3125,-0.98958 0.3125,-4.71354 z m 26.0156,-10.83333 v 33.72394 h 6.6666 v 8.43749 h -17.6302 v -42.16143 z m 9.3229,0 h 18.2812 v 8.43749 h -7.3177 v 7.99479 h 6.849 v 8.02083 h -6.849 v 9.27083 h 8.0469 v 8.43749 h -19.0104 z m 44.375,0 -3.8282,18.64582 5.7813,23.51561 h -10.1563 q -1.8229,-6.30208 -3.3333,-15.33853 -0.4167,3.98437 -1.1458,8.46354 l -1.0417,6.87499 h -10.6771 l 3.9584,-23.51561 -3.9584,-18.64582 h 10.599 q 0.2864,1.74479 1.1458,5.80729 0.6771,3.09895 1.1198,5.67708 l 2.3438,-11.48437 z" />
  </g>
</svg>
